<svg width="51" height="35" viewBox="0 0 51 35" fill="none" xmlns="http://www.w3.org/2000/svg">
<path d="M50.0342 34.9092H42.125L33.3809 7.97754H33.1084L24.3467 34.9092H10.6875V6.08496H0V0H38L50.0342 34.9092ZM16.8486 23.6904C16.039 23.4245 15.2532 23.4805 14.4922 23.8584C13.7393 24.2391 13.2369 24.8279 12.9844 25.624C12.713 26.4229 12.7657 27.2029 13.1436 27.9639C13.5323 28.7194 14.1318 29.2301 14.9414 29.4961C15.4596 29.6663 15.9806 29.6936 16.5029 29.5781C17.0278 29.4545 17.4956 29.2176 17.9062 28.8682C18.3276 28.5133 18.6309 28.0706 18.8145 27.5391C19.0669 26.7429 18.9944 25.9652 18.5977 25.207C18.2008 24.4488 17.6178 23.9431 16.8486 23.6904ZM23.8242 4.12891C22.3587 3.64763 20.9323 3.47125 19.5449 3.59863C18.1601 3.71798 16.9251 4.18711 15.8398 5.00586C14.7573 5.81651 13.9297 7.02471 13.3574 8.63086L18.3125 10.2578C18.5548 9.60208 18.8991 9.10082 19.3447 8.75391C19.7932 8.39886 20.2899 8.1848 20.834 8.1123C21.3807 8.03173 21.9171 8.07819 22.4434 8.25098C22.9857 8.42909 23.4426 8.70435 23.8135 9.07715C24.1925 9.45278 24.4463 9.8955 24.5752 10.4043C24.7041 10.9131 24.6776 11.4471 24.4941 12.0059C24.3213 12.5321 24.0466 12.9713 23.6709 13.3232C23.2978 13.6671 22.8558 13.9482 22.3447 14.166C21.8336 14.3839 21.2734 14.5724 20.665 14.7314C19.8548 14.9318 19.1254 15.212 18.4775 15.5732C17.8297 15.9345 17.2423 16.4954 16.7148 17.2549C16.1954 18.0172 15.699 19.1061 15.2256 20.5205L15.0898 20.9336L19.6934 22.4453L19.8281 22.0322C20.0968 21.2415 20.4177 20.6066 20.79 20.1279C21.1706 19.6519 21.6314 19.2732 22.1719 18.9932C22.7204 18.7159 23.3771 18.4927 24.1416 18.3223C25.0516 18.1188 25.878 17.8293 26.6201 17.4541C27.3648 17.0709 28.0107 16.565 28.5576 15.9375C29.1154 15.3044 29.5502 14.5138 29.8613 13.5664C30.3267 12.1494 30.3718 10.8233 29.9971 9.58789C29.6224 8.35248 28.902 7.26814 27.8359 6.33496C26.7726 5.39374 25.4355 4.65807 23.8242 4.12891Z" fill="black"/>
</svg>
