<svg width="16" height="15" viewBox="0 0 16 15" fill="none" xmlns="http://www.w3.org/2000/svg">
<path d="M2.72093 1.81395C2.96148 1.81395 3.19217 1.7184 3.36226 1.54831C3.53235 1.37821 3.62791 1.14752 3.62791 0.906977C3.62791 0.666432 3.53235 0.435739 3.36226 0.265647C3.19217 0.0955564 2.96148 0 2.72093 0H0.906977C0.666432 0 0.435739 0.0955564 0.265647 0.265647C0.0955564 0.435739 0 0.666432 0 0.906977V13.6047C0 13.8452 0.0955564 14.0759 0.265647 14.246C0.435739 14.4161 0.666432 14.5116 0.906977 14.5116H2.72093C2.96148 14.5116 3.19217 14.4161 3.36226 14.246C3.53235 14.0759 3.62791 13.8452 3.62791 13.6047C3.62791 13.3641 3.53235 13.1334 3.36226 12.9633C3.19217 12.7932 2.96148 12.6977 2.72093 12.6977H1.81395V1.81395H2.72093ZM15.2553 6.72977L12.6977 3.10186C12.559 2.90633 12.3485 2.77366 12.1122 2.73287C11.876 2.69208 11.6332 2.74649 11.437 2.88419C11.3389 2.95292 11.2554 3.04041 11.1913 3.14159C11.1272 3.24277 11.0838 3.35565 11.0635 3.47371C11.0433 3.59176 11.0466 3.71266 11.0734 3.82941C11.1001 3.94617 11.1497 4.05647 11.2193 4.15395L12.7793 6.34884H5.44186C5.20132 6.34884 4.97062 6.44439 4.80053 6.61448C4.63044 6.78458 4.53488 7.01527 4.53488 7.25581C4.53488 7.49636 4.63044 7.72705 4.80053 7.89714C4.97062 8.06723 5.20132 8.16279 5.44186 8.16279H12.6977L11.0651 10.3395C10.9937 10.4348 10.9417 10.5432 10.9121 10.6586C10.8825 10.774 10.876 10.8941 10.8928 11.012C10.9097 11.1299 10.9496 11.2433 11.0103 11.3458C11.071 11.4483 11.1512 11.5378 11.2465 11.6093C11.4035 11.727 11.5945 11.7907 11.7907 11.7907C11.9315 11.7907 12.0704 11.7579 12.1963 11.6949C12.3222 11.632 12.4318 11.5405 12.5163 11.4279L15.2372 7.8C15.3534 7.6466 15.4177 7.46023 15.421 7.26784C15.4243 7.07546 15.3662 6.88701 15.2553 6.72977Z" fill="black"/>
</svg>
