<svg width="29" height="29" viewBox="0 0 29 29" fill="none" xmlns="http://www.w3.org/2000/svg">
<path d="M14.5 0C10.6557 0.00429842 6.97005 1.53335 4.2517 4.2517C1.53335 6.97005 0.00429842 10.6557 0 14.5C0.00644113 18.3437 1.53618 22.028 4.25407 24.7459C6.97195 27.4638 10.6563 28.9936 14.5 29C18.3456 29 22.0338 27.4723 24.753 24.753C27.4723 22.0338 29 18.3456 29 14.5C29 10.6544 27.4723 6.96623 24.753 4.24695C22.0338 1.52767 18.3456 0 14.5 0ZM23.3195 22.8671C22.5051 21.2245 21.248 19.8422 19.6898 18.8762C18.1316 17.9101 16.3345 17.3987 14.5012 17.3997C12.6678 17.4006 10.8712 17.9139 9.31411 18.8816C7.75697 19.8493 6.50126 21.233 5.68864 22.8764C3.5205 20.6277 2.31239 17.6237 2.32 14.5C2.32 11.2697 3.60325 8.17163 5.88744 5.88744C8.17163 3.60325 11.2697 2.32 14.5 2.32C17.7303 2.32 20.8284 3.60325 23.1126 5.88744C25.3968 8.17163 26.68 11.2697 26.68 14.5C26.6873 17.6193 25.4823 20.6194 23.3195 22.8671ZM14.5 5.8C13.4676 5.8 12.4583 6.10615 11.5999 6.67973C10.7415 7.25331 10.0724 8.06856 9.67735 9.02239C9.28226 9.97622 9.17889 11.0258 9.3803 12.0384C9.58171 13.051 10.0789 13.9811 10.8089 14.7111C11.5389 15.4411 12.469 15.9383 13.4816 16.1397C14.4942 16.3411 15.5438 16.2377 16.4976 15.8427C17.4514 15.4476 18.2667 14.7785 18.8403 13.9201C19.4139 13.0617 19.72 12.0524 19.72 11.02C19.72 10.3345 19.585 9.65571 19.3227 9.02239C19.0603 8.38907 18.6758 7.81362 18.1911 7.3289C17.7064 6.84418 17.1309 6.45968 16.4976 6.19735C15.8643 5.93502 15.1855 5.8 14.5 5.8Z" fill="black"/>
</svg>
